<svg xmlns="http://www.w3.org/2000/svg" xmlns:xlink="http://www.w3.org/1999/xlink" width="500" zoomAndPan="magnify" viewBox="0 0 375 374.999991" height="500" preserveAspectRatio="xMidYMid meet" version="1.0"><defs><g/><clipPath id="5a9f510882"><path d="M 330.503906 97.570312 L 374.753906 97.570312 L 374.753906 143.320312 L 330.503906 143.320312 Z M 330.503906 97.570312 " clip-rule="nonzero"/></clipPath></defs><g fill="#00bf63" fill-opacity="1"><g transform="translate(-3.383917, 169.266476)"><g><path d="M 34.445312 0 L 34.445312 -9.046875 L 14.605469 -9.046875 L 14.605469 -21.132812 L 32.699219 -21.132812 L 32.699219 -30.113281 L 14.605469 -30.113281 L 14.605469 -39.097656 L 30.179688 -39.097656 L 30.179688 -48.144531 L 4.589844 -48.144531 L 4.589844 0 Z M 34.445312 0 "/></g></g></g><g fill="#00bf63" fill-opacity="1"><g transform="translate(33.642696, 169.266476)"><g><path d="M 17.578125 -16.929688 L 9.757812 -32.632812 L -0.386719 -32.632812 L 17.253906 0.839844 L 33.472656 -32.632812 L 24.554688 -32.632812 Z M 17.578125 -16.929688 "/></g></g></g><g fill="#00bf63" fill-opacity="1"><g transform="translate(66.727553, 169.266476)"><g><path d="M 26.625 -11.695312 C 25.136719 -9.371094 22.359375 -8.402344 19.582031 -8.402344 C 18.609375 -8.402344 17.707031 -8.464844 16.867188 -8.789062 L 35.089844 -21.84375 C 33.085938 -27.917969 26.882812 -33.34375 18.804688 -33.34375 C 9.433594 -33.34375 1.875 -25.71875 1.875 -16.285156 C 1.875 -6.980469 9.757812 0.710938 19.582031 0.710938 C 25.398438 0.710938 31.148438 -1.9375 33.925781 -6.074219 Z M 11.179688 -16.285156 C 11.179688 -20.871094 14.605469 -24.167969 18.804688 -24.167969 C 20.550781 -24.167969 22.035156 -23.585938 23.328125 -22.617188 L 11.4375 -14.152344 C 11.246094 -14.796875 11.179688 -15.507812 11.179688 -16.285156 Z M 11.179688 -16.285156 "/></g></g></g><g fill="#00bf63" fill-opacity="1"><g transform="translate(103.689549, 169.266476)"><g><path d="M 36.125 -16.285156 C 36.125 -25.71875 29.921875 -33.34375 21.003906 -33.34375 C 18.03125 -33.34375 14.21875 -32.441406 12.40625 -30.371094 L 12.40625 -32.632812 L 3.230469 -32.632812 L 3.230469 0 L 12.40625 0 L 12.40625 -16.285156 C 12.40625 -21.519531 16.15625 -24.167969 20.226562 -24.167969 C 23.976562 -24.167969 27.011719 -21.519531 27.011719 -16.285156 L 27.011719 0 L 36.125 0 Z M 36.125 -16.285156 "/></g></g></g><g fill="#00bf63" fill-opacity="1"><g transform="translate(142.590096, 169.266476)"><g><path d="M 22.359375 -24.167969 L 22.359375 -32.632812 L 14.605469 -32.632812 L 14.605469 -43.554688 L 5.429688 -36.898438 L 5.429688 -32.632812 L 0.515625 -32.632812 L 0.515625 -24.167969 L 5.429688 -24.167969 L 5.429688 -13.507812 C 5.429688 -5.039062 12.40625 0.710938 22.164062 0.710938 L 22.164062 -8.402344 C 17.964844 -8.402344 14.605469 -10.082031 14.605469 -13.765625 L 14.605469 -24.167969 Z M 22.359375 -24.167969 "/></g></g></g><g fill="#00bf63" fill-opacity="1"><g transform="translate(165.917508, 169.266476)"><g><path d="M 16.15625 -21.324219 C 20.808594 -20.808594 23.394531 -18.417969 23.394531 -14.539062 C 23.394531 -11.4375 20.808594 -8.789062 17.511719 -8.789062 C 14.667969 -8.789062 12.40625 -9.5 10.210938 -12.277344 L 1.9375 -6.203125 C 6.527344 -1.164062 12.019531 0.839844 17.511719 0.839844 C 25.976562 0.839844 33.796875 -5.878906 33.796875 -15.25 C 33.796875 -24.554688 27.011719 -30.113281 18.804688 -30.632812 C 13.699219 -30.953125 12.085938 -32.957031 12.085938 -35.15625 C 12.085938 -37.804688 13.894531 -39.417969 16.542969 -39.417969 C 18.222656 -39.417969 20.355469 -38.386719 21.648438 -37.027344 L 29.53125 -42.78125 C 25.847656 -47.175781 21.324219 -48.984375 16.542969 -48.984375 C 9.886719 -48.984375 2.390625 -43.230469 2.390625 -35.089844 C 2.390625 -27.527344 7.820312 -22.292969 16.15625 -21.324219 Z M 16.15625 -21.324219 "/></g></g></g><g fill="#00bf63" fill-opacity="1"><g transform="translate(201.845593, 169.266476)"><g><path d="M 26.558594 -14.992188 C 25.976562 -11.050781 22.8125 -8.402344 18.804688 -8.402344 C 14.605469 -8.402344 11.179688 -11.632812 11.179688 -16.285156 C 11.179688 -20.871094 14.605469 -24.167969 18.804688 -24.167969 C 21.066406 -24.167969 23.199219 -23.394531 24.878906 -21.261719 L 32.183594 -26.949219 C 29.015625 -30.824219 24.167969 -33.34375 18.804688 -33.34375 C 9.433594 -33.34375 1.875 -25.71875 1.875 -16.285156 C 1.875 -6.980469 9.433594 0.710938 18.804688 0.710938 C 27.789062 0.710938 35.347656 -6.269531 35.996094 -14.992188 Z M 26.558594 -14.992188 "/></g></g></g><g fill="#00bf63" fill-opacity="1"><g transform="translate(239.64763, 169.266476)"><g><path d="M 18.804688 -33.34375 C 9.433594 -33.34375 1.875 -25.71875 1.875 -16.285156 C 1.875 -6.980469 9.433594 0.710938 18.804688 0.710938 C 28.175781 0.710938 35.996094 -6.980469 35.996094 -16.285156 C 35.996094 -25.71875 28.175781 -33.34375 18.804688 -33.34375 Z M 18.804688 -8.402344 C 14.605469 -8.402344 11.179688 -11.632812 11.179688 -16.285156 C 11.179688 -20.871094 14.605469 -24.167969 18.804688 -24.167969 C 23.265625 -24.167969 26.625 -20.871094 26.625 -16.285156 C 26.625 -11.632812 23.265625 -8.402344 18.804688 -8.402344 Z M 18.804688 -8.402344 "/></g></g></g><g fill="#00bf63" fill-opacity="1"><g transform="translate(277.514285, 169.266476)"><g><path d="M 18.804688 -33.34375 C 9.433594 -33.34375 1.875 -25.71875 1.875 -16.285156 C 1.875 -6.980469 9.433594 0.710938 18.804688 0.710938 C 28.175781 0.710938 35.996094 -6.980469 35.996094 -16.285156 C 35.996094 -25.71875 28.175781 -33.34375 18.804688 -33.34375 Z M 18.804688 -8.402344 C 14.605469 -8.402344 11.179688 -11.632812 11.179688 -16.285156 C 11.179688 -20.871094 14.605469 -24.167969 18.804688 -24.167969 C 23.265625 -24.167969 26.625 -20.871094 26.625 -16.285156 C 26.625 -11.632812 23.265625 -8.402344 18.804688 -8.402344 Z M 18.804688 -8.402344 "/></g></g></g><g fill="#00bf63" fill-opacity="1"><g transform="translate(315.380939, 169.266476)"><g><path d="M 12.40625 15.574219 L 12.40625 -2.328125 C 14.152344 -0.257812 17.449219 0.710938 20.164062 0.710938 C 29.078125 0.710938 36.382812 -6.980469 36.382812 -16.414062 C 36.382812 -25.71875 29.339844 -33.34375 20.355469 -33.34375 C 17.382812 -33.34375 13.828125 -31.921875 12.40625 -30.371094 L 12.40625 -32.632812 L 3.230469 -32.632812 L 3.230469 15.574219 Z M 19.453125 -24.167969 C 23.652344 -24.167969 27.078125 -20.9375 27.078125 -16.347656 C 27.078125 -11.695312 23.652344 -8.402344 19.453125 -8.402344 C 15.1875 -8.402344 12.019531 -11.695312 12.019531 -16.347656 C 12.019531 -20.9375 15.1875 -24.167969 19.453125 -24.167969 Z M 19.453125 -24.167969 "/></g></g></g><g clip-path="url(#5a9f510882)"><path fill="#ffde59" d="M 374.984375 120.058594 L 368.425781 120.058594 C 357.195312 117.628906 354.699219 115.125 352.269531 103.875 L 352.269531 97.570312 L 351.4375 97.570312 L 351.4375 103.941406 C 349.011719 115.132812 346.503906 117.636719 335.292969 120.058594 L 330.507812 120.058594 L 330.507812 120.890625 L 335.292969 120.890625 C 346.503906 123.316406 349.011719 125.816406 351.4375 137.007812 L 351.4375 143.261719 L 352.269531 143.261719 L 352.269531 137.074219 C 354.699219 125.828125 357.195312 123.320312 368.425781 120.890625 L 374.984375 120.890625 Z M 374.984375 120.058594 " fill-opacity="1" fill-rule="nonzero"/></g></svg>