<svg xmlns="http://www.w3.org/2000/svg" xmlns:xlink="http://www.w3.org/1999/xlink" width="500" zoomAndPan="magnify" viewBox="0 0 375 374.999991" height="500" preserveAspectRatio="xMidYMid meet" version="1.0"><defs><filter x="0%" y="0%" width="100%" height="100%" id="7464dfb870"><feColorMatrix values="0 0 0 0 1 0 0 0 0 1 0 0 0 0 1 0 0 0 1 0" color-interpolation-filters="sRGB"/></filter><g/><mask id="b7f973de9d"><g filter="url(#7464dfb870)"><rect x="-37.5" width="450" fill="#000000" y="-37.499999" height="449.999989" fill-opacity="0.95"/></g></mask><clipPath id="c567d463e0"><path d="M 1.101562 0.242188 L 41.519531 0.242188 L 41.519531 41.492188 L 1.101562 41.492188 Z M 1.101562 0.242188 " clip-rule="nonzero"/></clipPath><clipPath id="d5fade6bc1"><rect x="0" width="42" y="0" height="42"/></clipPath></defs><rect x="-37.5" width="450" fill="#ffffff" y="-37.499999" height="449.999989" fill-opacity="1"/><rect x="-37.5" width="450" fill="#ffffff" y="-37.499999" height="449.999989" fill-opacity="1"/><g fill="#00bf63" fill-opacity="1"><g transform="translate(9.307211, 174.293489)"><g><path d="M 34.378906 0 L 34.378906 -9.03125 L 14.578125 -9.03125 L 14.578125 -21.089844 L 32.636719 -21.089844 L 32.636719 -30.058594 L 14.578125 -30.058594 L 14.578125 -39.023438 L 30.121094 -39.023438 L 30.121094 -48.050781 L 4.578125 -48.050781 L 4.578125 0 Z M 34.378906 0 "/></g></g></g><g fill="#00bf63" fill-opacity="1"><g transform="translate(46.263869, 174.293489)"><g><path d="M 17.542969 -16.898438 L 9.738281 -32.574219 L -0.386719 -32.574219 L 17.222656 0.839844 L 33.410156 -32.574219 L 24.511719 -32.574219 Z M 17.542969 -16.898438 "/></g></g></g><g fill="#00bf63" fill-opacity="1"><g transform="translate(79.286218, 174.293489)"><g><path d="M 26.574219 -11.675781 C 25.089844 -9.351562 22.316406 -8.386719 19.542969 -8.386719 C 18.574219 -8.386719 17.671875 -8.449219 16.835938 -8.773438 L 35.023438 -21.800781 C 33.023438 -27.863281 26.832031 -33.28125 18.769531 -33.28125 C 9.417969 -33.28125 1.871094 -25.671875 1.871094 -16.253906 C 1.871094 -6.964844 9.738281 0.710938 19.542969 0.710938 C 25.347656 0.710938 31.089844 -1.933594 33.863281 -6.0625 Z M 11.160156 -16.253906 C 11.160156 -20.832031 14.578125 -24.125 18.769531 -24.125 C 20.511719 -24.125 21.996094 -23.542969 23.285156 -22.574219 L 11.417969 -14.125 C 11.222656 -14.769531 11.160156 -15.480469 11.160156 -16.253906 Z M 11.160156 -16.253906 "/></g></g></g><g fill="#00bf63" fill-opacity="1"><g transform="translate(116.17838, 174.293489)"><g><path d="M 36.054688 -16.253906 C 36.054688 -25.671875 29.863281 -33.28125 20.960938 -33.28125 C 17.996094 -33.28125 14.191406 -32.378906 12.382812 -30.316406 L 12.382812 -32.574219 L 3.226562 -32.574219 L 3.226562 0 L 12.382812 0 L 12.382812 -16.253906 C 12.382812 -21.480469 16.125 -24.125 20.1875 -24.125 C 23.929688 -24.125 26.960938 -21.480469 26.960938 -16.253906 L 26.960938 0 L 36.054688 0 Z M 36.054688 -16.253906 "/></g></g></g><g fill="#00bf63" fill-opacity="1"><g transform="translate(155.005431, 174.293489)"><g><path d="M 22.316406 -24.125 L 22.316406 -32.574219 L 14.578125 -32.574219 L 14.578125 -43.472656 L 5.417969 -36.828125 L 5.417969 -32.574219 L 0.515625 -32.574219 L 0.515625 -24.125 L 5.417969 -24.125 L 5.417969 -13.480469 C 5.417969 -5.03125 12.382812 0.710938 22.125 0.710938 L 22.125 -8.386719 C 17.929688 -8.386719 14.578125 -10.0625 14.578125 -13.738281 L 14.578125 -24.125 Z M 22.316406 -24.125 "/></g></g></g><g fill="#00bf63" fill-opacity="1"><g transform="translate(178.28877, 174.293489)"><g><path d="M 16.125 -21.285156 C 20.769531 -20.769531 23.347656 -18.382812 23.347656 -14.511719 C 23.347656 -11.417969 20.769531 -8.773438 17.480469 -8.773438 C 14.640625 -8.773438 12.382812 -9.480469 10.191406 -12.253906 L 1.933594 -6.191406 C 6.515625 -1.160156 11.996094 0.839844 17.480469 0.839844 C 25.929688 0.839844 33.734375 -5.871094 33.734375 -15.222656 C 33.734375 -24.511719 26.960938 -30.058594 18.769531 -30.574219 C 13.675781 -30.894531 12.0625 -32.894531 12.0625 -35.089844 C 12.0625 -37.734375 13.867188 -39.34375 16.511719 -39.34375 C 18.1875 -39.34375 20.316406 -38.3125 21.609375 -36.957031 L 29.476562 -42.699219 C 25.800781 -47.085938 21.285156 -48.890625 16.511719 -48.890625 C 9.867188 -48.890625 2.386719 -43.152344 2.386719 -35.023438 C 2.386719 -27.476562 7.804688 -22.253906 16.125 -21.285156 Z M 16.125 -21.285156 "/></g></g></g><g fill="#00bf63" fill-opacity="1"><g transform="translate(214.148975, 174.293489)"><g><path d="M 26.507812 -14.964844 C 25.929688 -11.03125 22.769531 -8.386719 18.769531 -8.386719 C 14.578125 -8.386719 11.160156 -11.609375 11.160156 -16.253906 C 11.160156 -20.832031 14.578125 -24.125 18.769531 -24.125 C 21.027344 -24.125 23.15625 -23.347656 24.832031 -21.21875 L 32.121094 -26.898438 C 28.960938 -30.765625 24.125 -33.28125 18.769531 -33.28125 C 9.417969 -33.28125 1.871094 -25.671875 1.871094 -16.253906 C 1.871094 -6.964844 9.417969 0.710938 18.769531 0.710938 C 27.734375 0.710938 35.28125 -6.257812 35.925781 -14.964844 Z M 26.507812 -14.964844 "/></g></g></g><g fill="#00bf63" fill-opacity="1"><g transform="translate(251.879592, 174.293489)"><g><path d="M 18.769531 -33.28125 C 9.417969 -33.28125 1.871094 -25.671875 1.871094 -16.253906 C 1.871094 -6.964844 9.417969 0.710938 18.769531 0.710938 C 28.121094 0.710938 35.925781 -6.964844 35.925781 -16.253906 C 35.925781 -25.671875 28.121094 -33.28125 18.769531 -33.28125 Z M 18.769531 -8.386719 C 14.578125 -8.386719 11.160156 -11.609375 11.160156 -16.253906 C 11.160156 -20.832031 14.578125 -24.125 18.769531 -24.125 C 23.21875 -24.125 26.574219 -20.832031 26.574219 -16.253906 C 26.574219 -11.609375 23.21875 -8.386719 18.769531 -8.386719 Z M 18.769531 -8.386719 "/></g></g></g><g fill="#00bf63" fill-opacity="1"><g transform="translate(289.674703, 174.293489)"><g><path d="M 18.769531 -33.28125 C 9.417969 -33.28125 1.871094 -25.671875 1.871094 -16.253906 C 1.871094 -6.964844 9.417969 0.710938 18.769531 0.710938 C 28.121094 0.710938 35.925781 -6.964844 35.925781 -16.253906 C 35.925781 -25.671875 28.121094 -33.28125 18.769531 -33.28125 Z M 18.769531 -8.386719 C 14.578125 -8.386719 11.160156 -11.609375 11.160156 -16.253906 C 11.160156 -20.832031 14.578125 -24.125 18.769531 -24.125 C 23.21875 -24.125 26.574219 -20.832031 26.574219 -16.253906 C 26.574219 -11.609375 23.21875 -8.386719 18.769531 -8.386719 Z M 18.769531 -8.386719 "/></g></g></g><g fill="#00bf63" fill-opacity="1"><g transform="translate(327.469815, 174.293489)"><g><path d="M 12.382812 15.542969 L 12.382812 -2.320312 C 14.125 -0.257812 17.414062 0.710938 20.125 0.710938 C 29.023438 0.710938 36.3125 -6.964844 36.3125 -16.382812 C 36.3125 -25.671875 29.28125 -33.28125 20.316406 -33.28125 C 17.351562 -33.28125 13.804688 -31.863281 12.382812 -30.316406 L 12.382812 -32.574219 L 3.226562 -32.574219 L 3.226562 15.542969 Z M 19.414062 -24.125 C 23.605469 -24.125 27.027344 -20.898438 27.027344 -16.320312 C 27.027344 -11.675781 23.605469 -8.386719 19.414062 -8.386719 C 15.15625 -8.386719 11.996094 -11.675781 11.996094 -16.320312 C 11.996094 -20.898438 15.15625 -24.125 19.414062 -24.125 Z M 19.414062 -24.125 "/></g></g></g><path stroke-linecap="butt" transform="matrix(0.676422, 0, 0, 0.676422, 0.0000045, 187.423684)" fill="none" stroke-linejoin="miter" d="M -0.00000665266 4.998366 L 84.434437 4.998366 " stroke="#ff5757" stroke-width="10" stroke-opacity="1" stroke-miterlimit="4"/><path stroke-linecap="butt" transform="matrix(0, 0.676422, -0.676422, 0, 6.760752, 136.382086)" fill="none" stroke-linejoin="miter" d="M 0.00107367 4.999613 L 82.46051 4.999613 " stroke="#ff5757" stroke-width="10" stroke-opacity="1" stroke-miterlimit="4"/><path stroke-linecap="butt" transform="matrix(-0.676422, 0, 0, -0.676422, 374.993065, 131.794136)" fill="none" stroke-linejoin="miter" d="M 0.00129797 5.002767 L 84.435742 5.002767 " stroke="#ff5757" stroke-width="10" stroke-opacity="1" stroke-miterlimit="4"/><path stroke-linecap="butt" transform="matrix(0, -0.676422, 0.676422, 0, 368.232314, 182.835734)" fill="none" stroke-linejoin="miter" d="M -0.000300266 4.998314 L 82.464911 4.998314 " stroke="#ff5757" stroke-width="10" stroke-opacity="1" stroke-miterlimit="4"/><g mask="url(#b7f973de9d)"><g transform="matrix(1, 0, 0, 1, 156, 100)"><g clip-path="url(#d5fade6bc1)"><g clip-path="url(#c567d463e0)"><path fill="#ffde59" d="M 41.328125 20.582031 L 35.394531 20.582031 C 25.238281 18.382812 22.980469 16.117188 20.78125 5.945312 L 20.78125 0.242188 L 20.03125 0.242188 L 20.03125 6.003906 C 17.839844 16.125 15.570312 18.386719 5.433594 20.582031 L 1.105469 20.582031 L 1.105469 21.332031 L 5.433594 21.332031 C 15.570312 23.523438 17.839844 25.785156 20.03125 35.90625 L 20.03125 41.5625 L 20.78125 41.5625 L 20.78125 35.96875 C 22.980469 25.796875 25.238281 23.53125 35.394531 21.332031 L 41.328125 21.332031 Z M 41.328125 20.582031 " fill-opacity="1" fill-rule="nonzero"/></g></g></g></g></svg>